<?xml version="1.0" encoding="UTF-8" standalone="no"?>
<!-- Created with Inkscape (http://www.inkscape.org/) -->

<svg
   xmlns:dc="http://purl.org/dc/elements/1.1/"
   xmlns:cc="http://creativecommons.org/ns#"
   xmlns:rdf="http://www.w3.org/1999/02/22-rdf-syntax-ns#"
   xmlns:svg="http://www.w3.org/2000/svg"
   xmlns="http://www.w3.org/2000/svg"
   xmlns:sodipodi="http://sodipodi.sourceforge.net/DTD/sodipodi-0.dtd"
   xmlns:inkscape="http://www.inkscape.org/namespaces/inkscape"
   width="744.09448819"
   height="1052.3622047"
   id="svg2"
   version="1.1"
   inkscape:version="0.48.3.1 r9886"
   sodipodi:docname="drawing.svg">
  <defs
     id="defs4" />
  <sodipodi:namedview
     id="base"
     pagecolor="#ffffff"
     bordercolor="#666666"
     borderopacity="1.0"
     inkscape:pageopacity="0.0"
     inkscape:pageshadow="2"
     inkscape:zoom="0.35"
     inkscape:cx="35"
     inkscape:cy="520"
     inkscape:document-units="px"
     inkscape:current-layer="layer1"
     showgrid="false"
     inkscape:window-width="1600"
     inkscape:window-height="799"
     inkscape:window-x="0"
     inkscape:window-y="0"
     inkscape:window-maximized="1" />
  <metadata
     id="metadata7">
    <rdf:RDF>
      <cc:Work
         rdf:about="">
        <dc:format>image/svg+xml</dc:format>
        <dc:type
           rdf:resource="http://purl.org/dc/dcmitype/StillImage" />
        <dc:title></dc:title>
      </cc:Work>
    </rdf:RDF>
  </metadata>
  <g
     inkscape:label="Layer 1"
     inkscape:groupmode="layer"
     id="layer1">
    <text
       xml:space="preserve"
       style="font-size:52.020298px;font-style:normal;font-weight:normal;line-height:125%;letter-spacing:0px;word-spacing:0px;fill:#000000;fill-opacity:1;stroke:none;font-family:Sans"
       x="-1278.3545"
       y="550.01312"
       id="text2998"
       sodipodi:linespacing="125%"
       inkscape:export-filename="/home/xavier/project/github-projects/blood-donate-point/design/logo.png"
       inkscape:export-xdpi="42.876453"
       inkscape:export-ydpi="42.876453"><tspan
         sodipodi:role="line"
         id="tspan3000"
         x="-1278.3545"
         y="550.01312"
         style="font-size:187.27305603px;font-style:normal;font-variant:normal;font-weight:bold;font-stretch:normal;font-family:TF Srivichai;-inkscape-font-specification:TF Srivichai Bold">บัตรผู้บริจาคโลหิต</tspan></text>
    <text
       xml:space="preserve"
       style="font-size:38.48090744px;font-style:normal;font-weight:normal;text-align:center;line-height:91.00000262%;letter-spacing:0px;word-spacing:0px;text-anchor:middle;fill:#000000;fill-opacity:1;stroke:none;font-family:Sans"
       x="-767.61737"
       y="744.4765"
       id="text2998-6"
       sodipodi:linespacing="91.000003%"
       inkscape:export-filename="/home/xavier/project/github-projects/blood-donate-point/design/logo.png"
       inkscape:export-xdpi="42.876453"
       inkscape:export-ydpi="42.876453"><tspan
         sodipodi:role="line"
         id="tspan3000-1"
         x="-767.61737"
         y="744.4765"
         style="font-size:127.75076294px;font-style:normal;font-variant:normal;font-weight:bold;font-stretch:normal;text-align:center;line-height:91.00000262%;text-anchor:middle;font-family:TF Chiangsaen;-inkscape-font-specification:TF Chiangsaen Bold">ศูนย์บริการโลหิตแห่งชาติ</tspan><tspan
         sodipodi:role="line"
         x="-767.61737"
         y="860.72968"
         style="font-size:127.75076294px;font-style:normal;font-variant:normal;font-weight:bold;font-stretch:normal;text-align:center;line-height:91.00000262%;text-anchor:middle;font-family:TF Chiangsaen;-inkscape-font-specification:TF Chiangsaen Bold"
         id="tspan3023">สภากาชาดไทย</tspan></text>
    <path
       style="fill:#ffffff;stroke:#000000;stroke-width:1px;stroke-linecap:butt;stroke-linejoin:miter;stroke-opacity:1"
       d="m -842.85714,272.36218 c 0,0 -28.57143,-165.71428 -25.71429,-179.999997 2.85714,-14.285715 2.85714,-85.7142861 2.85714,-85.7142861 l 97.14286,-91.4285719 48.57143,62.857143 82.85714,97.142857 -17.14285,94.285715 -74.28572,37.14286 37.14286,57.14285 -11.42857,28.57143 -68.57143,8.57143 z"
       id="path2990"
       inkscape:connector-curvature="0"
       inkscape:export-filename="/home/xavier/project/github-projects/blood-donate-point/design/logo.png"
       inkscape:export-xdpi="42.876453"
       inkscape:export-ydpi="42.876453" />
    <path
       style="fill:#d40000"
       d="m -786.31939,312.84537 c -22.05651,-2.25922 -47.68662,-10.49752 -66.54339,-21.38909 -18.92797,-10.93269 -38.96423,-28.77783 -53.25346,-47.42976 -12.45015,-16.25135 -23.77896,-41.84168 -29.21906,-66.0021 -3.62434,-16.09626 -3.9924,-48.00777 -0.7456,-64.64274 6.15436,-31.531759 16.05413,-51.468979 43.65354,-87.914222 11.01589,-14.54656 21.12778,-28.0111996 22.47086,-29.9214096 1.34307,-1.91021 7.38693,-10.2311404 13.43078,-18.4909704 26.19968,-35.80585 44.02061,-65.78363 56.73843,-95.443428 9.91513,-23.12359 19.3922,-53.64367 23.76319,-76.52738 l 1.51591,-7.93637 4.60889,14.65176 c 9.33489,29.67594 23.21461,63.94646 37.37583,92.284968 19.51944,39.061041 37.66567,65.24865 81.15138,117.11307 21.72671,25.91296 26.86897,33.083473 34.18066,47.662593 24.22187,48.297039 23.25777,106.109399 -2.5818,154.817979 -27.17732,51.23035 -77.99808,84.44535 -136.63796,89.30275 -16.23892,1.34515 -15.41457,1.3489 -29.9082,-0.13565 z m 66.26478,-27.13276 c -0.61863,-3.23614 -3.77879,-5.07793 -10.90669,-6.3566 -2.57809,-0.46248 -5.55759,-1.59791 -6.62115,-2.52322 -1.06354,-0.92527 -4.75711,-2.52079 -8.20791,-3.54557 -4.48906,-1.33312 -7.19352,-3.06851 -9.50528,-6.09938 -1.77707,-2.32987 -4.06249,-4.23613 -5.07873,-4.23613 -1.01622,0 -3.83558,-1.19778 -6.26522,-2.66174 -9.86337,-5.94302 -13.84892,-10.0015 -17.66809,-17.99128 -3.43057,-7.17684 -4.8263,-8.69587 -13.00052,-14.14906 -7.87936,-5.25647 -9.21043,-6.65815 -9.53774,-10.04347 -0.26372,-2.72754 0.42538,-4.78619 2.24645,-6.71123 4.0764,-4.30913 9.39871,-15.64707 12.88324,-27.44479 2.76756,-9.37018 3.08431,-12.18724 2.48277,-22.08064 l -0.68947,-11.34022 12.21217,0.24023 c 7.43681,0.14629 13.02351,0.83349 14.28703,1.7574 1.57988,1.15524 2.1666,3.80324 2.45946,11.09998 0.21152,5.27054 0.63002,10.74949 0.92998,12.17544 0.92838,4.41307 6.38402,5.68182 20.35391,4.73352 12.93757,-0.87826 15.49329,-0.40356 29.76217,5.5279 3.66186,1.5222 10.2884,0.8714 10.2884,-1.01044 0,-1.74974 -13.78699,-17.33803 -15.33454,-17.33803 -0.85329,0 -1.91793,-2.21017 -2.37889,-4.93856 -1.01069,-5.98219 2.7915,-14.59811 10.21334,-23.14396 4.17596,-4.80839 5.401,-5.50393 9.81133,-5.57056 3.30669,-0.0501 6.18987,-1.01026 8.38482,-2.7927 1.83986,-1.4941 6.91659,-4.34956 11.28159,-6.34546 4.365,-1.99591 9.30997,-4.31057 10.98881,-5.14367 1.87841,-0.93215 4.81354,-4.98371 7.63114,-10.5337 3.8516,-7.58681 4.57867,-10.240069 4.57867,-16.708989 0,-4.22952 -0.52492,-9.0707 -1.1665,-10.75815 -1.57236,-4.13562 -9.17499,-12.40092 -15.25352,-16.58306 -4.70363,-3.23618 -5.03455,-3.87864 -6.39311,-12.41173 -2.24709,-14.113883 -3.13114,-15.714293 -8.68052,-15.714293 -7.44479,0 -16.41859,-3.24573 -21.8664,-7.90887 -2.76357,-2.36551 -5.95716,-4.30094 -7.09685,-4.30094 -1.13968,0 -4.08891,1.5973 -6.55383,3.54957 -5.19747,4.11646 -14.34352,6.95333 -26.24486,8.14046 -6.57194,0.65554 -8.52039,1.3076 -8.96283,2.99951 -0.62209,2.37892 -6.08061,3.98768 -7.22849,2.13041 -1.30102,-2.10512 4.88976,-15.82242 7.73314,-17.13474 2.0631,-0.95219 2.8607,-2.68316 3.465,-7.51976 1.01373,-8.1137296 -1.56431,-34.75361 -3.68179,-38.04507 -1.99029,-3.09373 -23.94217,-12.00512 -34.12769,-13.85416 -3.98469,-0.72335 -10.34234,-1.31521 -14.12812,-1.31521 l -6.88325,0 -10.45276,10.19714 c -8.38709,8.18196 -11.56084,10.47614 -16.05984,11.60901 -5.4606,1.37499 -5.66067,1.59503 -7.65814,8.4228104 -2.89542,9.89709 -0.84359,24.4335296 5.08717,36.0407096 2.32495,4.55023 4.2356,10.04463 4.24589,12.20981 0.0248,5.20692 0.85608,6.17304 7.01941,8.15725 6.62932,2.134233 8.04112,3.873843 6.99808,8.622913 -0.92579,4.21504 -4.30378,6.08169 -11.00577,6.08169 -6.25998,0 -10.11762,2.29259 -11.64501,6.92059 -2.30419,6.98181 -0.3719,13.49892 6.07027,20.47335 3.14113,3.40065 6.34719,7.664909 7.12457,9.476109 0.7774,1.81123 2.80703,4.20623 4.51026,5.32224 4.86624,3.18847 6.20207,10.25269 3.80429,20.11805 -1.83668,7.55676 -1.65828,12.16944 0.47062,12.16944 1.74464,0 3.38776,5.55231 2.80894,9.49178 -0.47699,3.24628 0.44072,5.54051 4.88399,12.20981 3.00924,4.51682 6.16416,10.35188 7.01094,12.9668 3.26498,10.08256 -1.38447,26.51484 -8.89534,31.43833 l -4.15878,2.72614 -0.76195,18.46582 c -0.88765,21.5121 -0.10818,30.78807 2.7114,32.26807 1.07832,0.566 4.9825,1.42353 8.67596,1.90565 10.92356,1.42586 23.71642,9.98299 26.68786,17.85147 1.16475,3.0843 1.6192,3.2105 14.42419,4.00565 19.59626,1.21683 35.64211,3.05796 42.52507,4.87933 7.20954,1.90783 7.78565,1.73378 7.04725,-2.129 z m -55.27595,-160.73161 0,-14.65177 -14.04127,0 -14.04127,0 0,-14.041249 0,-14.04128 14.04127,0 14.04127,0 0,-15.26225 0,-15.26225 15.26224,0 15.26225,0 0,15.26225 0,15.26225 13.73602,-0.002 13.73602,-0.002 -0.37916,14.04368 -0.37917,14.043739 -13.35685,0 -13.35686,0 0,14.65176 0,14.65175 -15.26225,0 -15.26224,0 0,-14.65175 z"
       id="path2996"
       inkscape:connector-curvature="0"
       inkscape:export-filename="/home/xavier/project/github-projects/blood-donate-point/design/logo.png"
       inkscape:export-xdpi="42.876453"
       inkscape:export-ydpi="42.876453" />
  </g>
</svg>
